<?xml version="1.0" standalone="no"?>
<!DOCTYPE svg PUBLIC "-//W3C//DTD SVG 20010904//EN"
 "http://www.w3.org/TR/2001/REC-SVG-20010904/DTD/svg10.dtd">
<svg version="1.0" xmlns="http://www.w3.org/2000/svg"
 width="1920.000000pt" height="1080.000000pt" viewBox="0 0 1920.000000 1080.000000"
 preserveAspectRatio="xMidYMid meet">

<g transform="translate(0.000000,1080.000000) scale(0.100000,-0.100000)"
fill="#000000" stroke="none">
<path d="M18545 7693 c-260 -9 -442 -40 -605 -101 -199 -74 -311 -179 -372
-349 -47 -131 -48 -145 -48 -1399 0 -1055 2 -1183 15 -1194 13 -11 123 -12
552 -7 295 4 540 10 545 15 12 12 5 3035 -7 3037 -5 0 -41 0 -80 -2z"/>
<path d="M2233 7677 c-4 -6 -35 -21 -68 -31 -101 -32 -149 -49 -183 -68 -18
-10 -40 -18 -48 -18 -9 0 -28 -6 -42 -14 -43 -23 -99 -46 -111 -46 -6 0 -11
-4 -11 -10 0 -5 -6 -10 -13 -10 -20 0 -232 -107 -294 -148 -30 -20 -63 -41
-72 -47 -9 -5 -30 -19 -46 -31 -17 -11 -37 -24 -45 -28 -85 -39 -249 -166
-397 -308 -40 -37 -76 -68 -81 -68 -8 0 -163 -159 -246 -254 -49 -56 -67 -81
-173 -235 -32 -46 -63 -86 -70 -88 -22 -9 -16 -112 22 -403 9 -69 20 -154 24
-190 5 -36 16 -105 26 -155 9 -49 19 -105 22 -123 3 -18 9 -35 14 -38 5 -3 9
-19 9 -35 0 -40 105 -347 164 -479 56 -124 114 -249 127 -270 5 -8 12 -22 15
-30 19 -51 81 -162 131 -235 21 -31 43 -64 48 -73 6 -9 35 -54 65 -100 30 -46
61 -94 69 -106 11 -17 42 -30 132 -54 64 -18 127 -32 139 -32 12 0 42 -6 68
-14 73 -22 203 -45 377 -67 88 -11 185 -25 215 -32 77 -17 465 -16 482 1 7 7
39 12 79 12 36 0 91 5 120 11 30 5 88 14 129 19 160 20 349 61 460 100 30 11
73 22 95 26 76 12 107 34 168 124 31 47 60 92 64 100 3 8 16 29 28 45 12 17
37 57 55 90 19 33 44 78 57 100 12 22 32 60 44 85 12 25 26 52 30 60 5 8 12
22 15 30 4 8 19 42 34 75 67 144 170 422 170 459 0 8 7 27 15 42 8 16 15 36
15 44 0 8 9 44 21 80 38 124 98 519 99 656 0 28 7 68 15 87 9 21 15 67 15 107
0 66 -2 73 -42 130 -58 82 -171 226 -218 275 -20 22 -44 51 -53 64 -54 82
-349 361 -439 416 -9 6 -43 30 -76 55 -33 25 -72 53 -88 62 -34 21 -58 36 -99
63 -33 22 -42 27 -130 75 -33 18 -71 40 -85 50 -21 15 -164 85 -225 111 -11 4
-47 20 -80 35 -88 39 -239 97 -322 123 -40 13 -73 27 -73 32 0 14 -38 11 -47
-4z m152 -94 c39 -13 79 -28 90 -33 11 -5 56 -23 100 -40 264 -105 556 -261
763 -410 35 -25 74 -52 86 -60 134 -90 470 -425 589 -588 12 -17 46 -63 75
-103 l52 -72 -1 -106 c-1 -177 -39 -554 -70 -681 -45 -191 -101 -377 -150
-495 -4 -11 -11 -31 -15 -45 -3 -14 -15 -43 -25 -65 -9 -22 -29 -67 -44 -100
-69 -157 -93 -206 -137 -284 -26 -46 -48 -85 -48 -87 0 -6 -155 -253 -186
-295 -19 -26 -44 -49 -56 -52 -24 -6 -54 -14 -148 -42 -133 -38 -362 -83 -545
-106 -397 -49 -845 -31 -1225 49 -104 23 -187 41 -220 50 -19 6 -61 17 -94 26
-65 17 -58 10 -159 161 -213 317 -329 554 -478 975 -24 69 -77 287 -86 355 -3
22 -9 45 -13 50 -4 6 -11 46 -15 90 -3 44 -11 98 -16 120 -5 22 -13 128 -18
235 -9 229 -11 223 94 370 197 274 428 502 722 714 51 36 96 66 99 66 4 0 15
6 23 14 15 13 70 46 191 114 69 39 239 125 295 149 171 73 234 98 385 151 59
21 54 22 185 -25z"/>
<path d="M2168 7531 c-42 -15 -80 -30 -84 -34 -4 -4 -13 -7 -21 -7 -7 0 -36
-11 -65 -25 -28 -14 -56 -25 -60 -25 -26 0 -395 -185 -478 -239 -47 -30 -65
-41 -80 -48 -8 -4 -17 -10 -20 -13 -3 -4 -25 -20 -50 -35 -200 -125 -489 -383
-635 -565 -104 -132 -120 -153 -173 -237 l-52 -82 0 -105 c0 -58 4 -125 10
-148 5 -24 14 -99 19 -168 6 -69 15 -147 20 -175 6 -27 16 -82 23 -122 7 -39
16 -75 21 -79 4 -4 7 -16 7 -26 0 -11 6 -40 14 -66 55 -182 69 -228 76 -237 4
-5 11 -26 15 -45 4 -19 11 -41 15 -50 19 -36 60 -131 60 -138 0 -4 40 -86 88
-182 117 -231 314 -545 351 -557 9 -3 25 -9 36 -13 32 -14 207 -57 305 -76
357 -67 710 -91 990 -66 269 24 343 34 460 62 19 5 55 11 80 15 25 4 59 10 75
15 17 5 59 16 95 25 36 9 72 20 80 25 9 4 35 11 57 15 40 6 46 12 106 103 117
179 164 261 260 457 58 117 81 166 106 230 5 11 14 34 21 50 6 17 25 71 42
120 16 50 34 99 38 110 5 11 12 36 16 55 3 19 10 40 14 45 4 6 10 24 14 40 4
17 14 59 22 95 22 92 34 161 45 265 5 50 14 126 19 170 19 162 29 357 19 379
-65 141 -398 514 -619 692 -131 105 -297 217 -450 303 -66 37 -378 191 -387
191 -6 0 -119 43 -188 71 -34 14 -171 59 -176 58 -2 -1 -39 -13 -81 -28z m136
-281 c26 -37 30 -54 30 -110 1 -71 -20 -126 -56 -149 -16 -10 -24 -9 -44 4
-55 36 -73 170 -33 242 44 78 58 80 103 13z m-228 -264 c16 -8 46 -32 67 -54
31 -32 38 -47 40 -83 2 -40 0 -44 -23 -47 -33 -4 -113 49 -138 92 -10 17 -22
49 -26 69 -7 36 -6 37 22 37 16 0 42 -7 58 -14z m446 9 c3 -3 0 -24 -6 -46
-23 -76 -100 -149 -158 -149 -25 0 -28 3 -28 36 0 49 34 100 89 135 41 26 89
37 103 24z m-537 -213 c55 -28 92 -62 118 -111 41 -75 34 -101 -27 -101 -28 0
-108 41 -141 72 -28 27 -75 114 -75 139 0 9 6 19 13 22 19 7 79 -4 112 -21z
m675 8 c0 -26 -51 -119 -81 -147 -71 -66 -171 -97 -186 -57 -18 48 52 150 134
193 39 21 133 29 133 11z m-832 -214 c103 -28 206 -113 232 -192 17 -50 8 -64
-40 -64 -51 0 -117 31 -175 82 -64 56 -113 157 -88 181 8 9 10 9 71 -7z m938
-9 c9 -25 -35 -107 -83 -155 -61 -61 -125 -92 -187 -92 l-49 0 5 44 c7 56 49
112 118 156 85 55 184 78 196 47z m-950 -294 c112 -35 260 -169 252 -227 -3
-19 -9 -21 -63 -20 -106 2 -219 71 -274 168 -41 71 -41 96 1 96 17 0 55 -7 84
-17z m999 7 c10 -17 -31 -96 -75 -144 -60 -65 -211 -134 -264 -120 -20 5 -26
12 -26 34 0 68 126 178 255 221 57 20 101 24 110 9z m-505 -960 l0 -210 -39 0
c-22 0 -42 3 -44 8 -8 12 -20 389 -13 401 4 6 27 11 52 11 l44 0 0 -210z m24
-262 c22 -31 20 -53 -11 -117 -22 -46 -28 -52 -31 -33 -2 13 2 30 8 37 8 9 10
28 6 50 -6 30 -11 35 -36 35 -35 0 -44 -22 -34 -85 3 -25 4 -45 1 -45 -11 0
-47 82 -47 108 0 65 7 72 71 72 48 0 60 -4 73 -22z m-54 -78 c0 -5 -4 -10 -10
-10 -5 0 -10 5 -10 10 0 6 5 10 10 10 6 0 10 -4 10 -10z"/>
<path d="M7540 7674 c-259 -44 -472 -198 -592 -428 -45 -87 -51 -106 -78 -246
-18 -90 -19 -166 -20 -1348 0 -1228 0 -1255 -20 -1333 -59 -231 -208 -417
-424 -531 -90 -47 -77 -53 86 -44 340 19 647 169 865 423 117 136 208 306 253
473 46 170 45 126 45 1625 0 1255 -2 1420 -15 1421 -8 1 -53 -4 -100 -12z"/>
<path d="M11945 7679 c-325 -40 -495 -105 -625 -238 -84 -85 -123 -162 -156
-311 -15 -65 -17 -162 -21 -710 -3 -418 -8 -639 -15 -647 -15 -18 -2008 -19
-2026 -1 -9 9 -12 108 -12 384 0 205 -3 375 -7 377 -9 6 -361 -19 -408 -28
-195 -38 -240 -52 -360 -111 -142 -69 -262 -217 -294 -359 -6 -27 -15 -71 -21
-97 -16 -73 -13 -649 4 -728 54 -257 189 -400 456 -482 262 -80 403 -88 1652
-88 1263 0 1424 8 1673 88 231 73 374 206 434 402 38 124 40 188 34 1393 l-6
1167 -116 -1 c-64 -1 -147 -5 -186 -10z"/>
<path d="M12557 7683 c-4 -3 -7 -187 -7 -408 0 -298 3 -404 12 -413 9 -9 219
-12 885 -12 l873 0 2 -1102 3 -1103 555 0 555 0 3 1094 c1 792 5 1098 13 1108
10 11 154 12 868 6 471 -3 869 -3 885 1 l29 7 -7 92 c-29 370 -220 596 -576
680 -241 57 -226 57 -2241 57 -1015 0 -1849 -3 -1852 -7z"/>
<path d="M6260 6859 c-307 -27 -622 -117 -891 -255 -317 -162 -553 -386 -667
-634 -42 -92 -82 -245 -82 -314 1 -47 2 -50 16 -31 8 11 56 62 106 112 313
316 837 541 1435 618 153 20 195 43 234 134 17 38 19 64 17 210 l-3 166 -35 1
c-19 1 -78 -2 -130 -7z"/>
<path d="M6230 5499 c-138 -16 -393 -65 -460 -89 -14 -4 -50 -16 -80 -25 -93
-28 -250 -93 -354 -146 -94 -49 -186 -113 -267 -188 -136 -125 -200 -252 -202
-396 -1 -94 18 -160 74 -256 58 -101 65 -103 71 -19 9 126 81 231 229 336 219
154 588 267 969 298 180 14 227 29 270 83 44 56 50 87 50 259 l0 164 -72 -1
c-40 -1 -143 -10 -228 -20z"/>
<path d="M9690 4246 c-69 -22 -100 -59 -100 -117 0 -71 44 -103 178 -129 72
-15 98 -40 86 -84 -7 -28 -27 -42 -78 -57 -31 -9 -141 14 -152 32 -13 21 -34
8 -34 -21 0 -41 47 -60 149 -60 78 0 128 19 158 59 18 25 24 75 12 109 -16 47
-48 63 -182 93 -59 13 -77 29 -77 68 0 12 9 30 20 41 25 25 122 28 176 5 40
-17 54 -13 54 14 0 25 -16 36 -78 49 -63 14 -85 14 -132 -2z"/>
<path d="M12780 4247 c-47 -15 -102 -74 -117 -125 -25 -80 -11 -188 30 -242
66 -88 222 -96 302 -16 37 36 50 82 50 171 0 84 -2 93 -30 134 -50 74 -150
107 -235 78z m150 -66 c38 -27 59 -78 59 -146 1 -86 -26 -140 -81 -165 -54
-25 -70 -25 -118 0 -57 29 -75 68 -75 166 0 73 3 84 28 117 43 57 128 69 187
28z"/>
<path d="M13575 4244 c-87 -32 -125 -97 -125 -214 0 -109 28 -163 107 -207 31
-17 147 -16 181 1 34 18 65 51 87 96 22 44 23 170 2 220 -21 48 -74 94 -123
108 -52 15 -79 14 -129 -4z m106 -44 c82 -23 122 -113 100 -222 -20 -96 -102
-147 -183 -114 -129 55 -124 296 8 336 39 11 34 11 75 0z"/>
<path d="M14074 4247 c-100 -28 -156 -102 -158 -206 -1 -108 40 -183 120 -216
53 -22 162 -19 218 5 l46 19 0 91 0 90 -85 0 c-78 0 -85 -2 -85 -20 0 -20 16
-27 75 -32 29 -3 30 -5 30 -53 l0 -50 -56 -14 c-54 -14 -58 -13 -105 10 -70
34 -94 75 -94 159 0 104 32 151 117 170 47 11 126 -4 162 -30 32 -22 41 -18
41 20 0 30 -19 42 -100 60 -55 12 -73 11 -126 -3z"/>
<path d="M16015 4249 c-46 -17 -92 -55 -110 -91 -10 -19 -20 -66 -22 -108 -7
-104 16 -163 82 -207 41 -29 55 -33 113 -33 132 0 197 74 197 225 0 73 -3 87
-30 130 -18 28 -45 56 -66 67 -45 23 -124 31 -164 17z m137 -60 c9 -5 27 -26
40 -46 33 -54 33 -172 0 -225 -21 -34 -80 -68 -118 -68 -27 0 -91 38 -108 65
-38 58 -32 194 10 245 39 46 118 59 176 29z"/>
<path d="M17778 4248 c-86 -23 -126 -123 -74 -185 25 -30 53 -41 161 -66 47
-11 63 -20 75 -40 22 -40 -1 -77 -60 -94 -38 -11 -53 -10 -102 3 -32 9 -61 21
-64 25 -13 21 -34 8 -34 -21 0 -25 6 -32 36 -45 47 -19 175 -20 212 -1 53 28
76 62 76 116 0 77 -17 89 -187 131 -27 7 -55 18 -63 26 -20 21 -17 60 6 83 25
25 122 28 177 5 47 -20 53 -19 53 9 0 31 -13 40 -78 54 -62 14 -83 14 -134 0z"/>
<path d="M8067 4243 c-4 -3 -7 -14 -7 -24 0 -14 10 -19 43 -21 l42 -3 3 -141
c2 -130 1 -143 -18 -167 -18 -23 -29 -27 -70 -27 -51 0 -64 -8 -54 -34 5 -12
20 -16 65 -16 51 0 63 4 91 29 l33 29 3 183 c3 142 0 184 -10 190 -16 10 -112
12 -121 2z"/>
<path d="M8317 4243 c-4 -3 -7 -75 -7 -158 0 -173 9 -208 63 -249 29 -22 44
-26 103 -26 63 0 73 3 106 30 50 41 58 76 58 251 0 126 -2 148 -16 153 -38 15
-44 -10 -44 -174 0 -156 0 -157 -26 -183 -36 -37 -85 -44 -126 -20 -52 30 -58
52 -58 219 0 129 -2 153 -16 158 -20 8 -29 8 -37 -1z"/>
<path d="M8768 4244 c-16 -5 -18 -24 -18 -209 0 -167 3 -205 15 -215 32 -26
44 -5 47 82 l3 83 36 3 c34 3 40 -2 113 -87 58 -68 83 -91 102 -91 17 0 24 6
24 19 0 11 -3 21 -7 23 -13 5 -123 139 -123 149 0 5 11 16 24 25 14 8 32 35
42 59 13 36 14 50 4 79 -18 57 -53 74 -156 80 -49 3 -97 3 -106 0z m173 -61
c25 -15 29 -24 29 -60 0 -56 -25 -79 -93 -86 -29 -2 -55 -3 -59 0 -10 5 -11
147 -1 156 13 14 96 7 124 -10z"/>
<path d="M9173 4243 c-17 -6 -18 -285 -2 -334 6 -19 27 -49 47 -66 33 -31 40
-33 107 -33 73 0 107 14 142 60 20 26 33 120 33 241 0 103 -2 120 -18 128 -11
6 -24 6 -35 0 -15 -9 -17 -29 -17 -168 0 -153 -1 -159 -24 -184 -33 -36 -87
-44 -128 -20 -52 30 -58 52 -58 219 0 129 -2 153 -16 158 -9 3 -16 6 -17 5 -1
0 -8 -3 -14 -6z"/>
<path d="M10118 4239 c-10 -5 -18 -15 -18 -22 0 -10 -12 -45 -105 -290 -33
-87 -36 -117 -10 -117 16 0 45 33 45 51 0 8 9 29 20 47 20 32 20 32 98 32 64
0 82 -4 95 -18 10 -10 17 -24 17 -30 0 -27 35 -82 52 -82 30 0 30 21 2 96 -14
38 -32 89 -40 114 -8 25 -19 54 -24 65 -5 11 -18 47 -30 80 -12 33 -26 65 -32
72 -12 15 -46 16 -70 2z m48 -86 c3 -10 10 -27 14 -38 19 -43 38 -110 33 -117
-6 -12 -133 -10 -133 2 0 5 4 19 9 32 5 13 19 49 31 81 23 59 36 70 46 40z"/>
<path d="M10422 4238 c-15 -15 -17 -380 -2 -409 13 -23 36 -25 44 -3 3 9 6 93
6 187 0 97 4 167 9 162 4 -6 32 -55 61 -110 141 -267 134 -257 169 -253 l26 3
3 209 c2 213 -2 242 -33 216 -12 -10 -15 -41 -16 -169 0 -183 6 -184 -100 16
-36 68 -73 132 -82 143 -19 22 -66 27 -85 8z"/>
<path d="M11020 4235 c-20 -24 -1 -35 64 -35 41 0 68 -5 75 -13 6 -8 12 -81
13 -193 3 -177 3 -179 26 -182 l22 -3 0 189 c0 217 -7 202 96 202 56 0 64 2
64 19 0 27 -25 31 -196 31 -121 0 -154 -3 -164 -15z"/>
<path d="M11448 4239 c-16 -9 -18 -30 -18 -203 0 -139 3 -197 13 -209 11 -15
29 -17 142 -15 118 3 130 5 133 22 6 29 -16 36 -121 36 l-98 0 3 78 3 77 105
5 c97 5 105 7 105 25 0 19 -8 20 -108 23 l-108 3 3 57 3 57 108 3 c97 2 107 4
107 21 0 10 -7 22 -16 25 -26 10 -238 6 -256 -5z"/>
<path d="M11824 4237 c-2 -7 -3 -105 -2 -217 3 -197 4 -205 23 -205 18 0 20 8
23 65 5 138 37 143 146 19 57 -65 85 -89 102 -89 34 0 30 24 -10 68 -71 78
-136 157 -136 167 1 6 38 50 85 100 54 59 79 92 72 97 -24 15 -54 -7 -145
-103 -52 -55 -98 -99 -103 -99 -5 0 -9 45 -9 99 0 81 -3 100 -16 105 -22 8
-24 8 -30 -7z"/>
<path d="M12234 4237 c-2 -7 -3 -105 -2 -217 3 -197 4 -205 23 -205 19 0 20 8
23 178 1 97 6 177 10 177 9 0 19 -18 82 -135 58 -108 101 -186 114 -207 14
-22 62 -24 70 -2 3 9 6 102 6 209 0 156 -3 195 -15 205 -29 24 -35 0 -35 -154
0 -84 -3 -156 -7 -159 -10 -10 -33 29 -132 218 -23 44 -49 86 -58 93 -22 16
-72 16 -79 -1z"/>
<path d="M13152 4238 c-15 -15 -17 -380 -2 -409 10 -17 22 -19 130 -19 108 0
120 2 130 20 16 30 -15 40 -119 40 l-91 0 -2 187 c-3 159 -5 188 -18 191 -9 1
-21 -3 -28 -10z"/>
<path d="M14397 4244 c-14 -15 -6 -35 18 -44 l25 -10 0 -160 0 -160 -26 -10
c-16 -7 -24 -16 -22 -28 3 -14 16 -17 81 -20 72 -3 77 -2 77 18 0 13 -9 24
-25 30 l-25 10 0 160 0 160 26 10 c16 7 24 16 22 28 -3 14 -16 18 -74 20 -38
1 -73 0 -77 -4z"/>
<path d="M14857 4244 c-14 -15 -6 -35 18 -44 l25 -10 0 -160 0 -160 -26 -10
c-16 -7 -24 -16 -22 -28 3 -14 16 -17 81 -20 72 -3 77 -2 77 18 0 13 -9 24
-25 30 l-25 10 0 160 0 160 26 10 c16 7 24 16 22 28 -3 14 -16 18 -74 20 -38
1 -73 0 -77 -4z"/>
<path d="M15127 4237 c-16 -11 -17 -33 -15 -211 3 -178 5 -200 21 -210 31 -19
37 11 37 181 0 89 4 164 8 167 5 3 34 -45 67 -107 76 -147 115 -219 128 -234
5 -7 22 -13 38 -13 l29 0 0 214 c0 218 -2 231 -37 219 -10 -4 -13 -43 -13
-154 0 -114 -3 -149 -13 -149 -7 0 -32 37 -55 83 -86 165 -111 210 -124 218
-19 13 -52 11 -71 -4z"/>
<path d="M15573 4243 c-10 -3 -13 -54 -13 -203 0 -205 3 -230 25 -230 23 0 30
22 35 115 l5 90 85 5 c83 5 85 6 85 30 0 25 -2 25 -87 28 l-88 3 0 53 c0 65 1
66 121 66 73 0 91 3 96 16 3 9 0 20 -8 25 -15 9 -235 11 -256 2z"/>
<path d="M16382 4242 c-9 -7 -12 -57 -10 -218 3 -207 3 -209 25 -212 26 -4 32
12 35 108 l3 65 36 3 c34 3 39 -2 112 -88 59 -68 83 -90 102 -90 18 0 25 5 25
19 0 11 -4 21 -8 23 -10 4 -122 136 -122 144 0 4 16 24 35 45 30 34 35 46 35
90 0 88 -55 119 -210 119 -25 0 -51 -4 -58 -8z m195 -77 c28 -32 25 -67 -10
-102 -20 -19 -65 -28 -124 -24 -14 1 -19 142 -5 155 4 4 31 6 61 4 44 -4 59
-10 78 -33z"/>
<path d="M16798 4239 c-16 -9 -18 -30 -18 -200 0 -190 6 -229 35 -229 21 0 25
27 28 184 1 83 6 141 12 143 6 2 21 -21 34 -51 50 -117 65 -141 89 -141 18 0
30 16 67 95 25 52 49 96 55 98 15 5 20 -34 23 -183 2 -133 3 -140 22 -140 19
0 20 8 23 209 1 122 -2 214 -7 219 -5 5 -24 7 -43 3 -31 -6 -36 -13 -77 -106
-24 -55 -49 -104 -56 -110 -9 -7 -23 14 -58 89 -61 130 -81 149 -129 120z"/>
<path d="M17403 4242 c-11 -7 -43 -85 -82 -202 -11 -30 -31 -86 -45 -124 -33
-86 -34 -108 -4 -104 16 2 28 17 43 56 12 30 28 58 36 63 22 13 153 11 170 -3
8 -7 21 -31 28 -53 17 -51 29 -65 52 -65 30 0 26 16 -36 185 -20 55 -47 128
-59 162 -12 33 -28 68 -35 77 -14 17 -48 21 -68 8z m67 -152 c0 -9 4 -20 9
-25 5 -6 12 -25 16 -42 l7 -33 -65 0 c-35 0 -66 2 -69 6 -6 5 23 94 49 153
l16 34 18 -38 c11 -21 19 -46 19 -55z"/>
<path d="M18097 4244 c-14 -15 -6 -35 18 -44 l25 -10 0 -160 0 -160 -25 -10
c-16 -6 -25 -17 -25 -30 0 -20 5 -21 77 -18 65 3 78 6 81 20 2 12 -6 21 -22
28 l-26 10 0 160 0 160 26 10 c16 7 24 16 22 28 -3 14 -16 18 -74 20 -38 1
-73 0 -77 -4z"/>
</g>
</svg>
